<svg width="70" height="70" viewBox="0 0 70 70" fill="none" xmlns="http://www.w3.org/2000/svg">
<path fill-rule="evenodd" clip-rule="evenodd" d="M37.9167 64.1667C37.9167 65.7709 36.6042 67.0834 35 67.0834C33.3958 67.0834 32.0833 65.7709 32.0833 64.1667V5.83335C32.0833 4.22919 33.3958 2.91669 35 2.91669C36.6042 2.91669 37.9167 4.22919 37.9167 5.83335V64.1667ZM8.75 55.4167V14.5834C8.75 11.375 11.375 8.75002 14.5833 8.75002H23.3333C24.9375 8.75002 26.25 10.0625 26.25 11.6667C26.25 13.2709 24.9375 14.5834 23.3333 14.5834H17.5C15.8958 14.5834 14.5833 15.8959 14.5833 17.5V52.5C14.5833 54.1042 15.8958 55.4167 17.5 55.4167H23.3333C24.9375 55.4167 26.25 56.7292 26.25 58.3334C26.25 59.9375 24.9375 61.25 23.3333 61.25H14.5833C11.375 61.25 8.75 58.625 8.75 55.4167ZM55.4167 26.25H61.25V20.4167H55.4167V26.25ZM43.75 61.25H49.5833V55.4167H43.75V61.25ZM55.4167 8.75002V14.5834H61.25C61.25 11.375 58.625 8.75002 55.4167 8.75002ZM55.4167 49.5834H61.25V43.75H55.4167V49.5834ZM49.5833 14.5834H43.75V8.75002H49.5833V14.5834ZM55.4167 37.9167H61.25V32.0834H55.4167V37.9167ZM61.25 55.4167C61.25 58.625 58.625 61.25 55.4167 61.25V55.4167H61.25Z" fill="white"/>
<path fill-rule="evenodd" clip-rule="evenodd" d="M35 67.0834C36.6042 67.0834 37.9167 65.7709 37.9167 64.1667V5.83335C37.9167 4.22919 36.6042 2.91669 35 2.91669C33.3958 2.91669 32.0833 4.22919 32.0833 5.83335V64.1667C32.0833 65.7709 33.3958 67.0834 35 67.0834ZM43.75 61.25H49.5833V55.4167H43.75V61.25ZM61.25 49.5833H55.4167V43.75H61.25V49.5833ZM55.4167 37.9167H61.25V32.0834H55.4167V37.9167ZM61.25 55.4167C61.25 58.625 58.625 61.25 55.4167 61.25V55.4167H61.25Z" fill="url(#paint0_linear_79_3397)"/>
<defs>
<linearGradient id="paint0_linear_79_3397" x1="58.1298" y1="2.91668" x2="28.5458" y2="6.92452" gradientUnits="userSpaceOnUse">
<stop stop-color="#8F51FF"/>
<stop offset="1" stop-color="#FF1B60"/>
</linearGradient>
</defs>
</svg>
