<svg width="70" height="70" viewBox="0 0 70 70" fill="none" xmlns="http://www.w3.org/2000/svg">
<path fill-rule="evenodd" clip-rule="evenodd" d="M49.5833 17.5C39.9292 17.5 32.0833 25.3458 32.0833 35C32.0833 44.6542 39.9292 52.5 49.5833 52.5C59.2375 52.5 67.0833 44.6542 67.0833 35C67.0833 25.3458 59.2375 17.5 49.5833 17.5ZM14.5833 23.3333C8.13749 23.3333 2.91666 28.5542 2.91666 35C2.91666 41.4458 8.13749 46.6667 14.5833 46.6667C21.0292 46.6667 26.25 41.4458 26.25 35C26.25 28.5542 21.0292 23.3333 14.5833 23.3333ZM36.3998 35C36.3998 42.3482 42.3515 48.3 49.6998 48.3C57.048 48.3 62.9998 42.3482 62.9998 35C62.9998 27.6518 57.048 21.7 49.6998 21.7C42.3515 21.7 36.3998 27.6518 36.3998 35Z" fill="white"/>
<path d="M14.5833 23.3333C8.13749 23.3333 2.91666 28.5541 2.91666 35C2.91666 41.4458 8.13749 46.6666 14.5833 46.6666C21.0292 46.6666 26.25 41.4458 26.25 35C26.25 28.5541 21.0292 23.3333 14.5833 23.3333Z" fill="url(#paint0_linear_79_3414)"/>
<defs>
<linearGradient id="paint0_linear_79_3414" x1="23.7539" y1="23.3333" x2="1.61854" y2="29.9305" gradientUnits="userSpaceOnUse">
<stop stop-color="#8F51FF"/>
<stop offset="1" stop-color="#FF1B60"/>
</linearGradient>
</defs>
</svg>
