<svg width="66" height="38" viewBox="0 0 66 38" fill="none" xmlns="http://www.w3.org/2000/svg">
<path d="M15.9051 34.1338L14.5183 36.9171L13.1486 34.1338L1.19844 10.0006L0 7.58398H2.75642L3.95486 10.0006L14.5183 31.3504L15.9051 34.1338Z" fill="black"/>
<path d="M40.2677 34.2013L38.8638 37.0013L37.477 34.2013L26.7938 12.6349L25.3899 9.81821L26.7253 7.10156L26.8623 7.16823L28.1806 9.80154L38.8638 31.3847L40.2677 34.2013Z" fill="black"/>
<path d="M52.4576 9.5656L51.0708 12.3822L40.2677 34.1987L38.8638 36.9987L37.4771 34.1987L38.8638 31.3821L49.6841 9.5656L51.0708 6.76562L52.4576 9.5656Z" fill="black"/>
<path d="M66 36.9164H63.2265L51.0709 12.3833L49.6841 9.56664L51.0709 6.75L52.4576 9.56664C56.9775 18.6832 61.4802 27.7998 66 36.9164Z" fill="black"/>
<path d="M59.631 36.9163H56.8403L49.6497 22.3664L51.0364 19.5664L59.631 36.9163Z" fill="black"/>
<path d="M27.7012 22.2334L20.4249 36.9166H17.6514L26.2802 19.4668L26.3315 19.4835L27.7012 22.2334Z" fill="black"/>
<path d="M18.9012 28.0685L18.8156 28.2685L15.9051 34.1351L14.5183 36.9184L13.1487 34.1351L14.5183 31.3518L16.1448 28.0685L17.5316 25.2852L18.9012 28.0685Z" fill="black"/>
<path d="M18.9013 28.0661L18.8157 28.2661L16.727 29.2328L16.1449 28.0661L7.20796 10.0163L6.00952 7.59961H8.78306L9.96438 10.0163L17.5317 25.2828L18.9013 28.0661Z" fill="black"/>
<path d="M9.9642 10.0173H7.20778L3.95486 10.0006H1.19844L0 7.58398H2.75642L6.00934 7.60065H8.78288L9.9642 10.0173Z" fill="black"/>
<path d="M28.1807 9.80154L26.7939 12.6348L20.6134 25.2014L20.5449 25.1681L19.1924 22.4348L25.39 9.81821L26.7255 7.10156L26.8624 7.16823L28.1807 9.80154Z" fill="black"/>
<path d="M32.8886 6.53328C31.0396 6.53328 29.533 5.06662 29.533 3.26664C29.533 1.46665 31.0396 0 32.8886 0C34.7376 0 36.2443 1.46665 36.2443 3.26664C36.2271 5.06662 34.7205 6.53328 32.8886 6.53328ZM32.8886 1.63332C31.9641 1.63332 31.2108 2.36664 31.2108 3.26664C31.2108 4.16663 31.9641 4.89996 32.8886 4.89996C33.8131 4.89996 34.5664 4.16663 34.5664 3.26664C34.5664 2.36664 33.8131 1.63332 32.8886 1.63332Z" fill="black"/>
</svg>
