<svg width="70" height="70" viewBox="0 0 70 70" fill="none" xmlns="http://www.w3.org/2000/svg">
<path fill-rule="evenodd" clip-rule="evenodd" d="M51.9607 13.0375C51.7274 13.0375 51.4941 12.9791 51.2899 12.8625C45.6899 9.97498 40.8482 8.74998 35.0441 8.74998C29.2691 8.74998 23.7857 10.1208 18.7982 12.8625C18.0982 13.2416 17.2232 12.9791 16.8149 12.2791C16.4357 11.5791 16.6982 10.675 17.3982 10.2958C22.8232 7.34998 28.7732 5.83331 35.0441 5.83331C41.2566 5.83331 46.6816 7.20415 52.6316 10.2666C53.3607 10.6458 53.6232 11.5208 53.2441 12.2208C52.9816 12.7458 52.4857 13.0375 51.9607 13.0375ZM10.2232 28.35C9.93156 28.35 9.63989 28.2625 9.37739 28.0875C8.70656 27.6208 8.56072 26.7166 9.02739 26.0458C11.9149 21.9625 15.5899 18.7541 19.9649 16.5083C29.1232 11.7833 40.8482 11.7541 50.0357 16.4791C54.4107 18.725 58.0857 21.9041 60.9732 25.9583C61.4399 26.6 61.2941 27.5333 60.6232 28C59.9524 28.4666 59.0482 28.3208 58.5816 27.65C55.9566 23.975 52.6316 21.0875 48.6941 19.075C40.3232 14.7875 29.6191 14.7875 21.2774 19.1041C17.3107 21.1458 13.9857 24.0625 11.3607 27.7375C11.1274 28.1458 10.6899 28.35 10.2232 28.35ZM27.4319 63.1167C27.6944 63.4084 28.0735 63.5542 28.4527 63.5542C28.8319 63.5542 29.211 63.4084 29.5319 63.1167C30.086 62.5334 30.086 61.6292 29.5319 61.0459C27.286 58.7709 26.0027 57.3417 24.136 53.9875C22.3569 50.8375 21.4235 46.9584 21.4235 42.7584C21.4235 35.7 27.5194 29.9542 35.0152 29.9542C42.511 29.9542 48.6068 35.7 48.6068 42.7584C48.6068 43.575 49.2485 44.2167 50.0652 44.2167C50.8819 44.2167 51.5235 43.575 51.5235 42.7584C51.5235 34.0959 44.1152 27.0375 35.0152 27.0375C25.9152 27.0375 18.5069 34.0959 18.5069 42.7584C18.5069 47.4542 19.5569 51.8292 21.5694 55.4167C23.5235 58.9459 24.8944 60.5792 27.4319 63.1167ZM49.3655 58.1588C45.8946 58.1588 42.8321 57.2838 40.3238 55.5629C35.978 52.6171 33.3821 47.8338 33.3821 42.7588C33.3821 41.9421 34.0238 41.3004 34.8405 41.3004C35.6571 41.3004 36.2988 41.9421 36.2988 42.7588C36.2988 46.8713 38.3988 50.7504 41.9571 53.1421C44.028 54.5421 46.4488 55.2129 49.3655 55.2129C50.0655 55.2129 51.2321 55.1254 52.3988 54.9213C53.1863 54.7754 53.9446 55.3004 54.0905 56.1171C54.2363 56.9046 53.7113 57.6629 52.8946 57.8088C51.2321 58.1296 49.7738 58.1588 49.3655 58.1588ZM43.1226 64.1078C43.2393 64.137 43.3851 64.1661 43.5018 64.1661C44.1143 64.1661 44.7268 63.7286 44.8726 63.0578C45.0768 62.2995 44.6393 61.4828 43.8518 61.2786C39.7393 60.1411 37.0851 58.6245 34.3143 55.8828C30.7851 52.3828 28.8601 47.7161 28.8601 42.7286C28.8601 39.6078 31.5726 37.0703 34.9268 37.0703C38.2809 37.0703 40.9934 39.6078 40.9934 42.7286C40.9934 47.4536 45.0184 51.3036 49.9768 51.3036C54.9351 51.3036 58.9601 47.4536 58.9601 42.7286C58.9601 30.1286 48.1684 19.8911 34.8976 19.8911C25.4768 19.8911 16.8726 25.1703 12.9934 33.3078C11.6809 36.0786 11.0101 39.2578 11.0101 42.7578C11.0101 46.6953 11.7101 50.487 13.1393 54.3078C13.4018 55.037 14.2476 55.4453 15.0059 55.1536C15.7643 54.8911 16.1434 54.0453 15.8518 53.287C14.1018 48.6203 13.8976 45.0328 13.8976 42.7578C13.8976 39.7245 14.4809 36.9536 15.6184 34.5911C19.0309 27.4453 26.6143 22.837 34.8976 22.837C46.5643 22.837 56.0434 31.762 56.0434 42.7578C56.0434 45.8786 53.3309 48.4161 49.9768 48.4161C46.6226 48.4161 43.9101 45.8786 43.9101 42.7578C43.9101 38.0328 39.8851 34.1828 34.9268 34.1828C29.9684 34.1828 25.9434 38.0328 25.9434 42.7578C25.9434 48.5328 28.1893 53.9286 32.2726 57.9828C35.4518 61.1036 38.4851 62.8245 43.1226 64.1078Z" fill="white"/>
<path fill-rule="evenodd" clip-rule="evenodd" d="M51.2899 12.8625C51.4941 12.9791 51.7274 13.0375 51.9607 13.0375C52.4857 13.0375 52.9816 12.7458 53.2441 12.2208C53.6232 11.5208 53.3607 10.6458 52.6316 10.2666C46.6816 7.20415 41.2566 5.83331 35.0441 5.83331C28.7732 5.83331 22.8232 7.34998 17.3982 10.2958C16.6982 10.675 16.4357 11.5791 16.8149 12.2791C17.2232 12.9791 18.0982 13.2416 18.7982 12.8625C23.7857 10.1208 29.2691 8.74998 35.0441 8.74998C40.8482 8.74998 45.6899 9.97498 51.2899 12.8625ZM40.3238 55.5629C42.8321 57.2838 45.8946 58.1588 49.3655 58.1588C49.7738 58.1588 51.2321 58.1296 52.8946 57.8088C53.7113 57.6629 54.2363 56.9046 54.0905 56.1171C53.9446 55.3004 53.1863 54.7754 52.3988 54.9213C51.2321 55.1254 50.0655 55.2129 49.3655 55.2129C46.4488 55.2129 44.028 54.5421 41.9571 53.1421C38.3988 50.7504 36.2988 46.8713 36.2988 42.7588C36.2988 41.9421 35.6571 41.3004 34.8405 41.3004C34.0238 41.3004 33.3821 41.9421 33.3821 42.7588C33.3821 47.8338 35.978 52.6171 40.3238 55.5629Z" fill="url(#paint0_linear_79_3383)"/>
<defs>
<linearGradient id="paint0_linear_79_3383" x1="50.106" y1="5.83331" x2="13.0852" y2="13.7352" gradientUnits="userSpaceOnUse">
<stop stop-color="#8F51FF"/>
<stop offset="1" stop-color="#FF1B60"/>
</linearGradient>
</defs>
</svg>
