<svg width="70" height="70" viewBox="0 0 70 70" fill="none" xmlns="http://www.w3.org/2000/svg">
<path fill-rule="evenodd" clip-rule="evenodd" d="M42.2917 8.75002C42.2917 9.56669 41.65 10.2084 40.8333 10.2084C40.0167 10.2084 39.375 9.56669 39.375 8.75002C39.375 7.93335 40.0167 7.29169 40.8333 7.29169C41.65 7.29169 42.2917 7.93335 42.2917 8.75002ZM17.5 14.5834C15.8958 14.5834 14.5833 15.8959 14.5833 17.5C14.5833 19.1042 15.8958 20.4167 17.5 20.4167C19.1042 20.4167 20.4167 19.1042 20.4167 17.5C20.4167 15.8959 19.1042 14.5834 17.5 14.5834ZM17.5 26.25C15.8958 26.25 14.5833 27.5625 14.5833 29.1667C14.5833 30.7709 15.8958 32.0834 17.5 32.0834C19.1042 32.0834 20.4167 30.7709 20.4167 29.1667C20.4167 27.5625 19.1042 26.25 17.5 26.25ZM14.5833 40.8334C14.5833 39.2292 15.8958 37.9167 17.5 37.9167C19.1042 37.9167 20.4167 39.2292 20.4167 40.8334C20.4167 42.4375 19.1042 43.75 17.5 43.75C15.8958 43.75 14.5833 42.4375 14.5833 40.8334ZM14.5833 52.5C14.5833 50.8959 15.8958 49.5834 17.5 49.5834C19.1042 49.5834 20.4167 50.8959 20.4167 52.5C20.4167 54.1042 19.1042 55.4167 17.5 55.4167C15.8958 55.4167 14.5833 54.1042 14.5833 52.5ZM7.29166 29.1667C7.29166 28.35 7.93332 27.7084 8.74999 27.7084C9.56666 27.7084 10.2083 28.35 10.2083 29.1667C10.2083 29.9834 9.56666 30.625 8.74999 30.625C7.93332 30.625 7.29166 29.9834 7.29166 29.1667ZM62.7083 29.1667C62.7083 29.9834 62.0667 30.625 61.25 30.625C60.4333 30.625 59.7917 29.9834 59.7917 29.1667C59.7917 28.35 60.4333 27.7084 61.25 27.7084C62.0667 27.7084 62.7083 28.35 62.7083 29.1667ZM40.8333 20.4167C42.4375 20.4167 43.75 19.1042 43.75 17.5C43.75 15.8959 42.4375 14.5834 40.8333 14.5834C39.2292 14.5834 37.9167 15.8959 37.9167 17.5C37.9167 19.1042 39.2292 20.4167 40.8333 20.4167ZM8.74999 39.375C7.93332 39.375 7.29166 40.0167 7.29166 40.8334C7.29166 41.65 7.93332 42.2917 8.74999 42.2917C9.56666 42.2917 10.2083 41.65 10.2083 40.8334C10.2083 40.0167 9.56666 39.375 8.74999 39.375ZM27.7083 61.25C27.7083 60.4334 28.35 59.7917 29.1667 59.7917C29.9833 59.7917 30.625 60.4334 30.625 61.25C30.625 62.0667 29.9833 62.7083 29.1667 62.7083C28.35 62.7083 27.7083 62.0667 27.7083 61.25ZM29.1667 10.2084C29.9833 10.2084 30.625 9.56669 30.625 8.75002C30.625 7.93335 29.9833 7.29169 29.1667 7.29169C28.35 7.29169 27.7083 7.93335 27.7083 8.75002C27.7083 9.56669 28.35 10.2084 29.1667 10.2084ZM32.0833 17.5C32.0833 19.1042 30.7708 20.4167 29.1667 20.4167C27.5625 20.4167 26.25 19.1042 26.25 17.5C26.25 15.8959 27.5625 14.5834 29.1667 14.5834C30.7708 14.5834 32.0833 15.8959 32.0833 17.5ZM29.1667 36.4584C26.7458 36.4584 24.7917 38.4125 24.7917 40.8334C24.7917 43.2542 26.7458 45.2083 29.1667 45.2083C31.5875 45.2083 33.5417 43.2542 33.5417 40.8334C33.5417 38.4125 31.5875 36.4584 29.1667 36.4584ZM49.5833 40.8334C49.5833 39.2292 50.8958 37.9167 52.5 37.9167C54.1042 37.9167 55.4167 39.2292 55.4167 40.8334C55.4167 42.4375 54.1042 43.75 52.5 43.75C50.8958 43.75 49.5833 42.4375 49.5833 40.8334ZM52.5 49.5834C50.8958 49.5834 49.5833 50.8959 49.5833 52.5C49.5833 54.1042 50.8958 55.4167 52.5 55.4167C54.1042 55.4167 55.4167 54.1042 55.4167 52.5C55.4167 50.8959 54.1042 49.5834 52.5 49.5834ZM49.5833 29.1667C49.5833 27.5625 50.8958 26.25 52.5 26.25C54.1042 26.25 55.4167 27.5625 55.4167 29.1667C55.4167 30.7709 54.1042 32.0834 52.5 32.0834C50.8958 32.0834 49.5833 30.7709 49.5833 29.1667ZM52.5 14.5834C50.8958 14.5834 49.5833 15.8959 49.5833 17.5C49.5833 19.1042 50.8958 20.4167 52.5 20.4167C54.1042 20.4167 55.4167 19.1042 55.4167 17.5C55.4167 15.8959 54.1042 14.5834 52.5 14.5834ZM59.7917 40.8334C59.7917 40.0167 60.4333 39.375 61.25 39.375C62.0667 39.375 62.7083 40.0167 62.7083 40.8334C62.7083 41.65 62.0667 42.2917 61.25 42.2917C60.4333 42.2917 59.7917 41.65 59.7917 40.8334ZM40.8333 49.5834C39.2292 49.5834 37.9167 50.8959 37.9167 52.5C37.9167 54.1042 39.2292 55.4167 40.8333 55.4167C42.4375 55.4167 43.75 54.1042 43.75 52.5C43.75 50.8959 42.4375 49.5834 40.8333 49.5834ZM39.375 61.25C39.375 60.4334 40.0167 59.7917 40.8333 59.7917C41.65 59.7917 42.2917 60.4334 42.2917 61.25C42.2917 62.0667 41.65 62.7083 40.8333 62.7083C40.0167 62.7083 39.375 62.0667 39.375 61.25ZM29.1667 24.7917C26.7458 24.7917 24.7917 26.7459 24.7917 29.1667C24.7917 31.5875 26.7458 33.5417 29.1667 33.5417C31.5875 33.5417 33.5417 31.5875 33.5417 29.1667C33.5417 26.7459 31.5875 24.7917 29.1667 24.7917ZM26.25 52.5C26.25 50.8959 27.5625 49.5834 29.1667 49.5834C30.7708 49.5834 32.0833 50.8959 32.0833 52.5C32.0833 54.1042 30.7708 55.4167 29.1667 55.4167C27.5625 55.4167 26.25 54.1042 26.25 52.5ZM40.8333 36.4584C38.4125 36.4584 36.4583 38.4125 36.4583 40.8334C36.4583 43.2542 38.4125 45.2083 40.8333 45.2083C43.2542 45.2083 45.2083 43.2542 45.2083 40.8334C45.2083 38.4125 43.2542 36.4584 40.8333 36.4584ZM36.4583 29.1667C36.4583 26.7459 38.4125 24.7917 40.8333 24.7917C43.2542 24.7917 45.2083 26.7459 45.2083 29.1667C45.2083 31.5875 43.2542 33.5417 40.8333 33.5417C38.4125 33.5417 36.4583 31.5875 36.4583 29.1667Z" fill="white"/>
<path fill-rule="evenodd" clip-rule="evenodd" d="M29.1667 24.7917C26.7458 24.7917 24.7917 26.7459 24.7917 29.1667C24.7917 31.5875 26.7458 33.5417 29.1667 33.5417C31.5875 33.5417 33.5417 31.5875 33.5417 29.1667C33.5417 26.7459 31.5875 24.7917 29.1667 24.7917ZM40.8333 36.4584C38.4125 36.4584 36.4583 38.4125 36.4583 40.8334C36.4583 43.2542 38.4125 45.2083 40.8333 45.2083C43.2542 45.2083 45.2083 43.2542 45.2083 40.8334C45.2083 38.4125 43.2542 36.4584 40.8333 36.4584ZM36.4583 29.1667C36.4583 26.7459 38.4125 24.7917 40.8333 24.7917C43.2542 24.7917 45.2083 26.7459 45.2083 29.1667C45.2083 31.5875 43.2542 33.5417 40.8333 33.5417C38.4125 33.5417 36.4583 31.5875 36.4583 29.1667Z" fill="url(#paint0_linear_79_3390)"/>
<defs>
<linearGradient id="paint0_linear_79_3390" x1="43.0242" y1="24.7917" x2="23.6558" y2="30.5643" gradientUnits="userSpaceOnUse">
<stop stop-color="#8F51FF"/>
<stop offset="1" stop-color="#FF1B60"/>
</linearGradient>
</defs>
</svg>
