<svg width="489" height="490" viewBox="0 0 489 490" fill="none" xmlns="http://www.w3.org/2000/svg">
<path d="M484.11 245.045C486.811 245.045 489.005 247.235 488.951 249.935C488.316 281.709 481.491 313.072 468.842 342.261C456.193 371.45 437.976 397.876 415.226 420.068C413.293 421.953 410.194 421.849 408.348 419.879C406.501 417.908 406.605 414.817 408.537 412.93C430.312 391.654 447.751 366.334 459.868 338.372C471.985 310.411 478.535 280.371 479.169 249.935C479.225 247.235 481.409 245.045 484.11 245.045Z" fill="white"/>
<path d="M391.342 434.387C392.997 436.521 392.612 439.597 390.445 441.209C363.274 461.424 332.184 475.785 299.14 483.361C266.096 490.938 231.855 491.555 198.591 485.196C195.938 484.689 194.251 482.088 194.811 479.446C195.371 476.804 197.966 475.122 200.619 475.627C232.492 481.692 265.295 481.087 296.954 473.829C328.613 466.57 358.403 452.824 384.45 433.479C386.618 431.869 389.687 432.253 391.342 434.387Z" fill="white" fill-opacity="0.09"/>
<path d="M482.396 216.433C485.077 216.11 486.994 213.674 486.618 211C480.879 170.181 464.907 131.447 440.155 98.4185C415.404 65.3904 382.71 39.1873 345.144 22.2198C342.683 21.1081 339.806 22.2643 338.744 24.7473C337.682 27.2303 338.836 30.0997 341.297 31.2134C377.285 47.5046 408.607 72.6289 432.329 104.284C456.051 135.938 471.373 173.053 476.906 212.168C477.284 214.842 479.714 216.755 482.396 216.433Z" fill="white" fill-opacity="0.39"/>
<path d="M311.425 14.9711C312.18 12.3779 310.689 9.65902 308.082 8.95666C249.988 -6.68982 188.096 -0.377729 134.289 26.7933C80.482 53.9643 38.6615 100.024 16.7668 156.063C15.784 158.578 17.0873 161.391 19.6219 162.324C22.1565 163.256 24.9624 161.954 25.9473 159.44C46.9856 105.725 87.101 61.5781 138.697 35.5233C190.294 9.4686 249.634 3.39326 305.35 18.3494C307.958 19.0496 310.671 17.5643 311.425 14.9711Z" fill="url(#paint0_linear_79_3774)"/>
<path d="M6.05854 268.697C3.37106 268.964 1.40351 271.359 1.72379 274.041C5.79282 308.11 16.9875 340.942 34.579 370.401C35.9636 372.719 38.985 373.414 41.2755 371.983C43.5661 370.553 44.2582 367.538 42.8755 365.218C26.0788 337.038 15.3758 305.647 11.458 273.075C11.1355 270.394 8.74603 268.43 6.05854 268.697Z" fill="white" fill-opacity="0.1"/>
<path d="M12.4189 185.45C9.8031 184.778 7.13304 186.353 6.51378 188.982C3.78826 200.552 1.9101 212.305 0.894244 224.148C0.663431 226.839 2.70971 229.168 5.40458 229.344C8.09944 229.521 10.4222 227.48 10.6553 224.789C11.6287 213.55 13.411 202.397 15.9885 191.414C16.6055 188.785 15.0347 186.121 12.4189 185.45Z" fill="white" fill-opacity="0.45"/>
<path d="M54.4251 390.937C52.2828 392.581 51.8753 395.655 53.5622 397.764C81.3128 432.46 117.996 458.94 159.665 474.355C162.197 475.292 164.986 473.938 165.872 471.387C166.759 468.836 165.407 466.054 162.874 465.115C123.01 450.329 87.9073 424.99 61.322 391.808C59.6334 389.7 56.5675 389.293 54.4251 390.937Z" fill="white"/>
<path d="M179.755 226.168L180.88 219.367H221.406L220.281 226.168H203.942L196.374 271.73H188.499L196.067 226.168H179.755ZM224.94 271.73V219.367H244.116C247.832 219.367 250.909 219.98 253.347 221.208C255.784 222.418 257.608 224.063 258.818 226.142C260.028 228.205 260.634 230.532 260.634 233.123C260.634 235.304 260.233 237.145 259.432 238.645C258.631 240.128 257.557 241.321 256.21 242.225C254.881 243.111 253.415 243.759 251.812 244.168V244.679C253.551 244.765 255.247 245.327 256.901 246.367C258.571 247.39 259.952 248.847 261.043 250.739C262.134 252.631 262.679 254.932 262.679 257.642C262.679 260.319 262.048 262.722 260.787 264.853C259.543 266.966 257.616 268.645 255.009 269.89C252.401 271.117 249.068 271.73 245.011 271.73H224.94ZM232.841 264.955H244.244C248.028 264.955 250.739 264.222 252.375 262.756C254.011 261.29 254.83 259.458 254.83 257.259C254.83 255.605 254.412 254.088 253.577 252.708C252.741 251.327 251.548 250.228 249.997 249.409C248.463 248.591 246.639 248.182 244.526 248.182H232.841V264.955ZM232.841 242.02H243.426C245.199 242.02 246.793 241.679 248.207 240.998C249.639 240.316 250.773 239.361 251.608 238.134C252.46 236.89 252.886 235.424 252.886 233.736C252.886 231.571 252.128 229.756 250.611 228.29C249.094 226.824 246.767 226.091 243.631 226.091H232.841V242.02ZM276.473 271.73H268.087L286.93 219.367H296.058L314.902 271.73H306.516L291.712 228.878H291.303L276.473 271.73ZM277.879 251.225H305.084V257.873H277.879V251.225Z" fill="white"/>
<defs>
<linearGradient id="paint0_linear_79_3774" x1="436.688" y1="0.5449" x2="-27.2048" y2="138.804" gradientUnits="userSpaceOnUse">
<stop stop-color="#8F51FF"/>
<stop offset="1" stop-color="#FF1B60"/>
</linearGradient>
</defs>
</svg>
