<svg width="36" height="36" viewBox="0 0 36 36" fill="none" xmlns="http://www.w3.org/2000/svg">
<path d="M36 18C36 27.936 27.936 36 18 36C8.064 36 0 27.936 0 18C0 8.064 8.064 0 18 0C27.936 0 36 8.064 36 18Z" fill="white" fill-opacity="0.1"/>
<path d="M27.9383 11.6207L24.7696 26.5645C24.5305 27.6192 23.9071 27.8817 23.0211 27.3848L18.193 23.827L15.8633 26.0676C15.6055 26.3254 15.3899 26.541 14.893 26.541L15.2399 21.6239L24.1883 13.5379C24.5774 13.191 24.1039 12.9989 23.5836 13.3457L12.5211 20.3114L7.75861 18.8207C6.72267 18.4973 6.70392 17.7848 7.97423 17.2879L26.6024 10.1114C27.4649 9.78792 28.2196 10.3035 27.9383 11.6207Z" fill="white"/>
</svg>
