<svg width="36" height="36" viewBox="0 0 36 36" fill="none" xmlns="http://www.w3.org/2000/svg">
<path d="M36 18C36 27.936 27.936 36 18 36C8.064 36 0 27.936 0 18C0 8.064 8.064 0 18 0C27.936 0 36 8.064 36 18Z" fill="#101010"/>
<path d="M29.7931 20.1518V21.297C29.7931 21.3686 29.7569 21.4044 29.6844 21.4402C29.3223 21.5833 28.0547 22.1559 27.5477 22.8717C26.2078 24.6968 25.1937 27.3093 22.9484 27.3093H13.4962C10.1644 27.3093 7.44824 24.6253 7.44824 21.297V21.1897C7.44824 21.1181 7.52067 21.0465 7.5931 21.0465H12.9167C13.0254 21.0465 13.0978 21.1539 13.0978 21.2255C13.0616 21.5475 13.134 21.9054 13.2789 22.2275C13.6048 22.8717 14.2567 23.2296 14.9448 23.2296H17.5523V21.2255H14.981C14.8362 21.2255 14.7637 21.0823 14.8362 20.9749C14.8724 20.9392 14.9086 20.9034 14.9448 20.8318C15.1983 20.4739 15.5242 19.9729 15.8864 19.3645C16.1399 18.9708 16.3572 18.5056 16.5383 18.0762C16.5745 18.0046 16.6107 17.933 16.6469 17.8256C16.6831 17.6825 16.7556 17.5393 16.7918 17.432C16.828 17.3246 16.8642 17.2173 16.9004 17.1099C16.9729 16.752 17.0091 16.3584 17.0091 15.9289C17.0091 15.7858 17.0091 15.6068 16.9729 15.4279C16.9729 15.2489 16.9366 15.07 16.9366 14.8911C16.9366 14.7479 16.9004 14.569 16.8642 14.4258C16.828 14.1753 16.7918 13.9606 16.7194 13.7101L16.6831 13.6385C16.6469 13.4954 16.6107 13.3164 16.5383 13.1733C16.3934 12.6722 16.2123 12.1712 16.0313 11.7418C15.9588 11.5628 15.8864 11.3839 15.814 11.205C15.7053 10.9544 15.5967 10.7039 15.488 10.4892C15.4518 10.3818 15.3794 10.3103 15.3432 10.2029C15.307 10.0955 15.2345 9.98817 15.1983 9.88081C15.1621 9.80924 15.1259 9.73767 15.0897 9.66609L14.7637 9.09349C14.7275 9.02191 14.7999 8.91455 14.8724 8.95034L16.8642 9.48715L17.1177 9.55873L17.4074 9.6303L17.5161 9.66609V8.4851C17.5161 7.9125 17.9869 7.44727 18.5301 7.44727C18.8198 7.44727 19.0733 7.55462 19.2544 7.73356C19.4355 7.9125 19.5441 8.16301 19.5441 8.44931V10.1671L19.7614 10.2387C19.7614 10.2387 19.7977 10.2387 19.7977 10.2745C19.8339 10.3103 19.9063 10.3818 20.0149 10.4534C20.0874 10.525 20.1598 10.5966 20.2685 10.6681C20.4495 10.8113 20.703 11.026 20.9565 11.2407C21.029 11.3123 21.1014 11.3481 21.1376 11.4197C21.4636 11.706 21.8257 12.0639 22.1879 12.4575C22.2965 12.5649 22.3689 12.6722 22.4776 12.7796C22.5862 12.887 22.6587 13.0301 22.7673 13.1375C22.876 13.2806 23.0208 13.4596 23.1295 13.6027C23.1657 13.6743 23.2381 13.7459 23.2743 13.8532C23.4192 14.068 23.5278 14.2827 23.6727 14.4974C23.7089 14.6048 23.7813 14.7121 23.8176 14.8195C23.9624 15.1058 24.0711 15.3921 24.1073 15.7142C24.1435 15.7858 24.1435 15.8573 24.1435 15.8931C24.1797 15.9647 24.1797 16.0721 24.1797 16.1794C24.2159 16.5015 24.1797 16.7878 24.1435 17.1099C24.1073 17.253 24.0711 17.3604 24.0348 17.5036C23.9986 17.6109 23.9624 17.7541 23.89 17.8972C23.7813 18.1477 23.6365 18.3982 23.4916 18.6488C23.4554 18.7203 23.383 18.8277 23.3105 18.9351C23.2381 19.0424 23.1657 19.114 23.1295 19.2214C23.057 19.3287 22.9484 19.4361 22.876 19.5434C22.8035 19.6508 22.7311 19.7582 22.6224 19.8655C22.5138 20.0087 22.3689 20.1518 22.2603 20.295C22.1879 20.3666 22.1154 20.4739 22.0068 20.5455C21.9344 20.6171 21.8619 20.7244 21.7533 20.796C21.6446 20.9034 21.536 21.0107 21.4273 21.0823L21.21 21.2612C21.1738 21.297 21.1376 21.297 21.1014 21.297H19.5079V23.3011H21.4998C21.9344 23.3011 22.3689 23.158 22.6949 22.8717C22.8035 22.7643 23.3105 22.3349 23.9262 21.6907C23.9624 21.6549 23.9624 21.6549 23.9986 21.6549L29.5033 20.0803C29.7206 19.9729 29.7931 20.0445 29.7931 20.1518Z" fill="white"/>
</svg>
