<svg width="28" height="27" viewBox="0 0 28 27" fill="none" xmlns="http://www.w3.org/2000/svg">
<g clip-path="url(#clip0_296_968)">
<circle cx="14" cy="13.5" r="13.5" fill="white" fill-opacity="0.1"/>
<path d="M13.1389 12.9326C13.9118 12.5632 14.3153 12.0042 14.3153 11.134C14.3153 9.41806 13.0368 9 11.5615 9H7.5V17.6139H11.6757C13.241 17.6139 14.7115 16.8628 14.7115 15.1128C14.7115 14.0312 14.1986 13.2316 13.1389 12.9326ZM9.3934 10.4705H11.1701C11.8531 10.4705 12.4681 10.6625 12.4681 11.4549C12.4681 12.1865 11.9892 12.4806 11.3135 12.4806H9.3934V10.4705ZM11.4181 16.1507H9.3934V13.7785H11.4569C12.2906 13.7785 12.8181 14.126 12.8181 15.0083C12.8181 15.8785 12.1885 16.1507 11.4181 16.1507ZM20.1316 10.3003H16.6389V9.45208H20.1316V10.3003ZM21.5 14.5854C21.5 12.7406 20.4208 11.2021 18.4642 11.2021C16.5635 11.2021 15.2729 12.6312 15.2729 14.5028C15.2729 16.4448 16.4955 17.7767 18.4642 17.7767C19.9542 17.7767 20.9191 17.1059 21.3833 15.6792H19.8715C19.7087 16.2115 19.0378 16.4934 18.5177 16.4934C17.5139 16.4934 16.9865 15.9052 16.9865 14.9062H21.4854C21.4927 14.8042 21.5 14.6948 21.5 14.5854ZM16.9889 13.8271C17.0448 13.008 17.5892 12.4951 18.4108 12.4951C19.2712 12.4951 19.7038 13.0007 19.7767 13.8271H16.9889Z" fill="white"/>
</g>
<defs>
<clipPath id="clip0_296_968">
<rect width="27" height="27" fill="white" transform="translate(0.5)"/>
</clipPath>
</defs>
</svg>
