<svg width="23" height="22" viewBox="0 0 23 22" fill="none" xmlns="http://www.w3.org/2000/svg">
<g clip-path="url(#clip0_252_796)">
<path d="M19.3047 4.35131C19.2989 4.34 19.2892 4.33114 19.2775 4.32631C17.9159 3.70162 16.4791 3.25616 15.0029 3.00109C14.9895 2.9986 14.9757 3.0004 14.9633 3.00623C14.951 3.01207 14.9408 3.02164 14.9343 3.03359C14.7386 3.3887 14.561 3.75345 14.4021 4.12645C12.8109 3.88491 11.1924 3.88491 9.60117 4.12645C9.44123 3.7525 9.26077 3.38766 9.06063 3.03359C9.05376 3.0219 9.04354 3.01255 9.03128 3.00675C9.01902 3.00095 9.00531 2.99898 8.99191 3.00109C7.51562 3.25563 6.0787 3.70112 4.71733 4.32635C4.70567 4.33129 4.69584 4.33972 4.68918 4.35049C1.96671 8.41614 1.22092 12.3818 1.58678 16.2984C1.58781 16.308 1.59076 16.3173 1.59545 16.3257C1.60015 16.3342 1.60649 16.3416 1.6141 16.3475C3.19937 17.5213 4.97252 18.4172 6.85787 18.9971C6.87115 19.0011 6.88533 19.0009 6.8985 18.9966C6.91167 18.9923 6.9232 18.9841 6.93155 18.973C7.33648 18.422 7.69528 17.8386 8.0043 17.2286C8.00855 17.2203 8.01097 17.2111 8.01142 17.2017C8.01186 17.1923 8.01031 17.183 8.00687 17.1742C8.00343 17.1655 7.99818 17.1576 7.99147 17.151C7.98475 17.1445 7.97672 17.1394 7.96791 17.1362C7.40211 16.9197 6.85434 16.6587 6.32976 16.3557C6.32023 16.3501 6.31223 16.3423 6.30646 16.3328C6.30069 16.3234 6.29733 16.3127 6.29668 16.3017C6.29602 16.2906 6.2981 16.2796 6.30271 16.2696C6.30733 16.2595 6.31435 16.2508 6.32315 16.2441C6.43323 16.1616 6.54337 16.0758 6.64848 15.9892C6.65781 15.9815 6.66912 15.9766 6.6811 15.975C6.69309 15.9733 6.70529 15.9751 6.71633 15.9801C10.1531 17.5485 13.8739 17.5485 17.2699 15.9801C17.281 15.9748 17.2933 15.9728 17.3055 15.9743C17.3177 15.9757 17.3292 15.9806 17.3387 15.9884C17.4438 16.075 17.5539 16.1616 17.6648 16.2441C17.6737 16.2507 17.6807 16.2594 17.6854 16.2694C17.6901 16.2794 17.6923 16.2904 17.6917 16.3015C17.6911 16.3125 17.6878 16.3232 17.6821 16.3327C17.6764 16.3422 17.6685 16.3501 17.659 16.3557C17.1356 16.6613 16.5874 16.9221 16.0201 17.1354C16.0113 17.1387 16.0033 17.1439 15.9966 17.1506C15.9899 17.1572 15.9847 17.1652 15.9814 17.174C15.978 17.1828 15.9765 17.1922 15.977 17.2016C15.9776 17.2111 15.9801 17.2203 15.9844 17.2286C16.2986 17.8352 16.6568 18.4179 17.0563 18.972C17.0644 18.9834 17.0759 18.9919 17.0891 18.9964C17.1023 19.0009 17.1166 19.0011 17.13 18.997C19.0187 18.4191 20.795 17.5231 22.3822 16.3475C22.3899 16.3419 22.3964 16.3347 22.4011 16.3263C22.4058 16.318 22.4087 16.3088 22.4095 16.2992C22.8475 11.7713 21.6762 7.83807 19.3047 4.35131ZM8.51756 13.9136C7.48284 13.9136 6.63026 12.9641 6.63026 11.7979C6.63026 10.6318 7.4663 9.68218 8.51756 9.68218C9.57702 9.68218 10.4213 10.64 10.4048 11.7979C10.4048 12.9641 9.56874 13.9136 8.51756 13.9136ZM15.4954 13.9136C14.4608 13.9136 13.6082 12.9641 13.6082 11.7979C13.6082 10.6318 14.4442 9.68218 15.4954 9.68218C16.555 9.68218 17.3993 10.64 17.3827 11.7979C17.3827 12.9641 16.555 13.9136 15.4954 13.9136Z" fill="black"/>
</g>
<defs>
<clipPath id="clip0_252_796">
<rect width="22" height="22" fill="white" transform="translate(0.5)"/>
</clipPath>
</defs>
</svg>
