<svg width="28" height="27" viewBox="0 0 28 27" fill="none" xmlns="http://www.w3.org/2000/svg">
<g clip-path="url(#clip0_296_957)">
<circle cx="14" cy="13.5" r="13.5" fill="white" fill-opacity="0.1"/>
<path d="M13.5018 9.8978C11.2316 9.8978 9.4005 11.7293 9.4005 14C9.4005 16.2707 11.2316 18.1022 13.5018 18.1022C15.7719 18.1022 17.6031 16.2707 17.6031 14C17.6031 11.7293 15.7719 9.8978 13.5018 9.8978ZM13.5018 16.667C12.0347 16.667 10.8354 15.4709 10.8354 14C10.8354 12.5291 12.0312 11.333 13.5018 11.333C14.9724 11.333 16.1682 12.5291 16.1682 14C16.1682 15.4709 14.9688 16.667 13.5018 16.667ZM18.7274 9.73C18.7274 10.262 18.2991 10.6868 17.7708 10.6868C17.239 10.6868 16.8142 10.2584 16.8142 9.73C16.8142 9.20161 17.2426 8.77318 17.7708 8.77318C18.2991 8.77318 18.7274 9.20161 18.7274 9.73ZM21.4438 10.7011C21.3831 9.41939 21.0904 8.28406 20.1516 7.34866C19.2165 6.41325 18.0814 6.1205 16.7999 6.05623C15.4793 5.98126 11.5207 5.98126 10.2001 6.05623C8.9222 6.11693 7.78712 6.40968 6.84835 7.34509C5.90959 8.28049 5.62047 9.41582 5.55622 10.6975C5.48126 12.0185 5.48126 15.9779 5.55622 17.2989C5.6169 18.5806 5.90959 19.7159 6.84835 20.6513C7.78712 21.5867 8.91863 21.8795 10.2001 21.9438C11.5207 22.0187 15.4793 22.0187 16.7999 21.9438C18.0814 21.8831 19.2165 21.5903 20.1516 20.6513C21.0868 19.7159 21.3795 18.5806 21.4438 17.2989C21.5187 15.9779 21.5187 12.0221 21.4438 10.7011ZM19.7376 18.7163C19.4592 19.416 18.9202 19.9551 18.217 20.2372C17.164 20.6549 14.6654 20.5585 13.5018 20.5585C12.3381 20.5585 9.83597 20.6513 8.78656 20.2372C8.08695 19.9587 7.54796 19.4196 7.26598 18.7163C6.84835 17.6631 6.94473 15.1639 6.94473 14C6.94473 12.8361 6.85192 10.3334 7.26598 9.28372C7.54439 8.58396 8.08338 8.04485 8.78656 7.7628C9.83954 7.34509 12.3381 7.44148 13.5018 7.44148C14.6654 7.44148 17.1676 7.34866 18.217 7.7628C18.9166 8.04128 19.4556 8.58039 19.7376 9.28372C20.1552 10.3369 20.0588 12.8361 20.0588 14C20.0588 15.1639 20.1552 17.6666 19.7376 18.7163Z" fill="white"/>
</g>
<defs>
<clipPath id="clip0_296_957">
<rect width="27" height="27" fill="white" transform="translate(0.5)"/>
</clipPath>
</defs>
</svg>
