<svg width="22" height="22" viewBox="0 0 22 22" fill="none" xmlns="http://www.w3.org/2000/svg">
<path d="M18.9442 6.98749C18.9569 7.16248 18.9569 7.33751 18.9569 7.5125C18.9569 12.85 14.8326 19 7.29444 19C4.97209 19 2.81473 18.3375 1 17.1875C1.32996 17.225 1.64719 17.2375 1.98985 17.2375C3.90607 17.2375 5.67006 16.6 7.0787 15.5125C5.27666 15.475 3.7665 14.3125 3.24618 12.7125C3.50001 12.75 3.7538 12.775 4.02032 12.775C4.38833 12.775 4.75638 12.725 5.099 12.6375C3.22083 12.2625 1.81215 10.6375 1.81215 8.67499V8.62501C2.35782 8.92501 2.99239 9.11251 3.66493 9.13748C2.56087 8.41247 1.83754 7.17498 1.83754 5.77497C1.83754 5.02499 2.04055 4.33749 2.3959 3.73748C4.41369 6.18748 7.4467 7.78745 10.8477 7.96248C10.7843 7.66248 10.7462 7.35001 10.7462 7.03751C10.7462 4.81248 12.5736 3 14.8452 3C16.0254 3 17.0914 3.4875 17.8401 4.275C18.7665 4.10001 19.6548 3.76249 20.4416 3.3C20.137 4.23752 19.4898 5.02502 18.6396 5.52499C19.4645 5.43753 20.264 5.21248 21 4.90001C20.4417 5.69998 19.7437 6.41245 18.9442 6.98749Z" fill="black"/>
</svg>
